<?xml version="1.0" standalone="no"?>
<!DOCTYPE svg PUBLIC "-//W3C//DTD SVG 20010904//EN"
 "http://www.w3.org/TR/2001/REC-SVG-20010904/DTD/svg10.dtd">
<svg version="1.0" xmlns="http://www.w3.org/2000/svg"
 width="260.000000pt" height="260.000000pt" viewBox="0 0 260.000000 260.000000"
 preserveAspectRatio="xMidYMid meet">

<g transform="translate(0.000000,260.000000) scale(0.100000,-0.100000)"
fill="#000000" stroke="none">
<path d="M1170 2574 c-14 -2 -56 -9 -95 -15 -172 -27 -389 -121 -534 -229
-257 -192 -428 -462 -497 -782 -25 -116 -25 -380 0 -496 111 -517 491 -897
1008 -1008 116 -25 380 -25 496 0 389 84 711 325 887 667 102 197 139 356 139
589 0 233 -37 392 -140 591 -175 339 -500 583 -884 665 -71 15 -327 27 -380
18z m390 -103 c460 -104 816 -466 916 -931 25 -118 25 -362 0 -480 -101 -472
-464 -835 -936 -936 -118 -25 -362 -25 -480 0 -472 101 -835 464 -936 936 -13
61 -18 128 -18 240 0 171 15 267 65 403 157 433 535 732 999 791 75 9 307 -4
390 -23z"/>
<path d="M1146 2354 c-31 -30 -8 -69 36 -62 30 4 38 46 12 65 -23 17 -29 16
-48 -3z"/>
<path d="M1678 2254 c-42 -22 -51 -48 -29 -76 19 -23 20 -23 49 -5 37 21 64
22 103 2 33 -18 69 -69 69 -99 0 -11 -5 -34 -12 -52 -9 -26 -9 -36 1 -48 36
-43 91 14 91 92 0 133 -164 245 -272 186z"/>
<path d="M1130 2134 c-154 -67 -168 -286 -24 -370 68 -40 130 -43 198 -10 122
60 156 210 73 319 -53 69 -165 97 -247 61z m150 -80 c86 -51 80 -182 -10 -229
-79 -41 -180 20 -183 108 -3 104 105 172 193 121z"/>
<path d="M630 2099 c-32 -13 -78 -57 -96 -91 -23 -45 -18 -115 11 -143 29 -30
37 -31 61 -4 15 16 16 24 6 39 -18 29 -15 64 8 93 24 30 74 44 95 27 8 -6 24
-10 37 -8 31 4 36 47 9 72 -24 22 -96 30 -131 15z"/>
<path d="M1654 1706 c-12 -31 2 -51 41 -64 51 -16 75 -45 75 -89 0 -74 -92
-112 -145 -58 -20 19 -25 34 -25 73 0 55 -17 78 -49 67 -26 -8 -35 -42 -28
-102 5 -49 27 -85 71 -117 39 -30 143 -30 182 0 49 36 67 70 72 131 3 49 0 64
-20 93 -13 19 -39 45 -57 57 -39 27 -108 31 -117 9z"/>
<path d="M2035 1701 c-9 -30 5 -51 35 -51 30 0 44 21 35 51 -4 13 -16 19 -35
19 -19 0 -31 -6 -35 -19z"/>
<path d="M932 1628 c-25 -25 -6 -68 30 -68 9 0 22 9 28 20 22 40 -26 80 -58
48z"/>
<path d="M511 1590 c-91 -22 -162 -135 -147 -233 14 -85 66 -150 137 -171 123
-37 239 62 239 201 -1 130 -114 231 -229 203z m103 -99 c86 -75 44 -231 -62
-231 -49 0 -71 16 -94 67 -53 119 65 243 156 164z"/>
<path d="M2084 1497 c-13 -35 -1 -52 56 -77 8 -3 23 -23 34 -44 32 -64 -1
-147 -63 -159 -58 -12 -48 -77 12 -77 77 0 141 84 141 185 -1 67 -16 105 -62
148 -36 35 -108 49 -118 24z"/>
<path d="M1132 1235 c-56 -25 -107 -71 -138 -127 -25 -46 -29 -63 -29 -128 1
-115 51 -197 152 -246 180 -88 396 47 392 245 -2 69 -12 96 -38 99 -36 6 -45
-12 -46 -91 0 -64 -4 -79 -28 -114 -88 -127 -272 -110 -338 32 -24 51 -24 99
0 150 49 106 157 143 272 94 53 -23 79 -16 79 21 0 63 -184 106 -278 65z"/>
<path d="M1835 1116 c-25 -18 -16 -60 14 -64 31 -5 54 23 41 48 -13 24 -35 31
-55 16z"/>
<path d="M757 1073 c-15 -14 -6 -53 14 -64 18 -9 25 -7 41 9 16 16 18 23 9 41
-11 20 -50 29 -64 14z"/>
<path d="M425 890 c-68 -45 -83 -130 -39 -219 77 -154 299 -183 344 -45 43
129 -78 284 -220 284 -38 0 -64 -6 -85 -20z m156 -83 c78 -53 102 -139 48
-179 -82 -61 -241 108 -172 184 23 25 82 23 124 -5z"/>
<path d="M1965 894 c-72 -37 -105 -89 -105 -163 0 -61 28 -99 80 -110 101 -21
199 56 208 165 4 51 3 55 -31 89 -29 29 -42 35 -78 35 -24 0 -57 -7 -74 -16z
m99 -108 c-2 -51 -41 -89 -88 -84 -27 3 -31 7 -34 36 -4 45 46 94 92 90 29 -3
31 -5 30 -42z"/>
<path d="M890 516 c-6 -8 -10 -25 -8 -38 2 -18 9 -23 33 -23 24 0 31 5 33 23
6 42 -33 68 -58 38z"/>
<path d="M1573 493 c-8 -2 -13 -22 -13 -45 0 -33 -7 -47 -37 -78 -80 -80 -226
-69 -262 19 -14 32 -32 44 -56 35 -38 -15 -24 -85 27 -130 81 -74 211 -80 312
-13 53 36 83 79 92 136 10 64 -16 95 -63 76z"/>
</g>
</svg>
